<?xml version="1.0" encoding="utf-8"?>
<svg version="1.1" xmlns:xlink="http://www.w3.org/1999/xlink" width="25px" height="20px" xmlns="http://www.w3.org/2000/svg">
  <g transform="matrix(1 0 0 1 3 -3 )">
    <path d="M 13.9083592135001 3.5  C 13.9083592135001 3.5  15.6696984669343 4.20453570137369  15.6696984669343 4.20453570137369  C 15.6696984669343 4.20453570137369  21.4058708356037 13  21.4058708356037 13  C 21.4058708356037 13  15.6696984669343 21.7954642986263  15.6696984669343 21.7954642986263  C 15.6696984669343 21.7954642986263  13.9083592135001 22.5  13.9083592135001 22.5  C 13.9083592135001 22.5  -2.5 22.5  -2.5 22.5  C -2.5 22.5  -2.5 3.5  -2.5 3.5  C -2.5 3.5  13.9083592135001 3.5  13.9083592135001 3.5  Z " fill-rule="nonzero" fill="#aaaaaa" stroke="none" />
    <path d="M 13.9083592135001 3.5  C 13.9083592135001 3.5  15.6696984669343 4.20453570137369  15.6696984669343 4.20453570137369  C 15.6696984669343 4.20453570137369  21.4058708356037 13  21.4058708356037 13  C 21.4058708356037 13  15.6696984669343 21.7954642986263  15.6696984669343 21.7954642986263  C 15.6696984669343 21.7954642986263  13.9083592135001 22.5  13.9083592135001 22.5  C 13.9083592135001 22.5  -2.5 22.5  -2.5 22.5  C -2.5 22.5  -2.5 3.5  -2.5 3.5  C -2.5 3.5  13.9083592135001 3.5  13.9083592135001 3.5  Z " stroke-width="1" stroke="#797979" fill="none" />
  </g>
</svg>