<?xml version="1.0" encoding="utf-8"?>
<svg version="1.1" xmlns:xlink="http://www.w3.org/1999/xlink" width="15px" height="15px" xmlns="http://www.w3.org/2000/svg">
  <g transform="matrix(1 0 0 1 -704 -295 )">
    <path d="M 711.5 295  C 715.7 295  719 298.3  719 302.5  C 719 306.7  715.7 310  711.5 310  C 707.3 310  704 306.7  704 302.5  C 704 298.3  707.3 295  711.5 295  Z " fill-rule="nonzero" fill="#8080ff" stroke="none" />
    <path d="M 711.5 295.5  C 715.42 295.5  718.5 298.58  718.5 302.5  C 718.5 306.42  715.42 309.5  711.5 309.5  C 707.58 309.5  704.5 306.42  704.5 302.5  C 704.5 298.58  707.58 295.5  711.5 295.5  Z " stroke-width="1" stroke="#797979" fill="none" />
  </g>
</svg>